<svg width="40" height="40" viewBox="0 0 40 40" fill="none" xmlns="http://www.w3.org/2000/svg">
<rect width="40" height="40" rx="20" fill="#787878"/>
<path d="M6.17188 24V13.3945H7.43164V17.3057H7.53418C7.8125 16.8809 8.28125 15.9434 9.83398 15.9434C11.8262 15.9434 13.2324 17.5254 13.2324 20.0449C13.2324 22.5645 11.8262 24.1611 9.84863 24.1611C8.3252 24.1611 7.8125 23.2236 7.53418 22.7842H7.3877V24H6.17188ZM7.40234 20.0156C7.40234 21.8027 8.20801 23.0332 9.6582 23.0332C11.167 23.0332 11.958 21.7148 11.958 20.0156C11.958 18.3604 11.1963 17.0713 9.6582 17.0713C8.19336 17.0713 7.40234 18.2578 7.40234 20.0156ZM16.1328 13.3945V24H14.873V13.3945H16.1328ZM21.3916 24.1611C19.2236 24.1611 17.7588 22.5352 17.7588 20.0596C17.7588 17.584 19.2236 15.9434 21.3916 15.9434C23.5449 15.9434 24.9951 17.584 24.9951 20.0596C24.9951 22.5352 23.5449 24.1611 21.3916 24.1611ZM21.3916 23.0479C22.9883 23.0479 23.7354 21.6416 23.7354 20.0596C23.7354 18.4775 22.9883 17.0566 21.3916 17.0566C19.7656 17.0566 19.0186 18.4775 19.0186 20.0596C19.0186 21.6416 19.7656 23.0479 21.3916 23.0479ZM29.873 27.1494C27.9541 27.1494 26.6504 26.3145 26.5039 24.835H27.8223C27.998 25.6406 28.7451 26.0508 29.873 26.0508C31.2354 26.0508 32.0703 25.4648 32.0703 24.1465V22.5352H31.9678C31.7041 22.9746 31.1914 23.8828 29.6533 23.8828C27.7197 23.8828 26.2695 22.418 26.2695 19.9131C26.2695 17.4668 27.6758 15.9434 29.668 15.9434C31.2061 15.9434 31.7041 16.8809 31.9971 17.3057H32.0996V16.0459H33.3301V24.2197C33.3301 26.2705 31.8066 27.1494 29.873 27.1494ZM29.8291 22.7549C31.2793 22.7549 32.0996 21.7148 32.0996 19.957C32.0996 18.2578 31.3086 17.0713 29.8291 17.0713C28.3057 17.0713 27.5439 18.3604 27.5439 19.957C27.5439 21.6123 28.3203 22.7549 29.8291 22.7549Z" fill="white"/>
</svg>
