<svg width="40" height="40" viewBox="0 0 40 40" fill="none" xmlns="http://www.w3.org/2000/svg">
<g clip-path="url(#clip0_372_355)">
<path d="M40.0001 20.1221C40.0001 9.00707 31.0451 -0.00292969 20.0001 -0.00292969C8.95012 -0.000429687 -0.00488281 9.00707 -0.00488281 20.1246C-0.00488281 30.1671 7.31012 38.4921 16.8701 40.0021V25.9396H11.7951V20.1246H16.8751V15.6871C16.8751 10.6446 19.8626 7.85957 24.4301 7.85957C26.6201 7.85957 28.9076 8.25207 28.9076 8.25207V13.2021H26.3851C23.9026 13.2021 23.1276 14.7546 23.1276 16.3471V20.1221H28.6726L27.7876 25.9371H23.1251V39.9996C32.6851 38.4896 40.0001 30.1646 40.0001 20.1221Z" fill="#787878"/>
</g>
<defs>
<clipPath id="clip0_372_355">
<rect width="40" height="40" fill="white"/>
</clipPath>
</defs>
</svg>
