<svg width="46" height="46" viewBox="0 0 46 46" fill="none" xmlns="http://www.w3.org/2000/svg">
<path d="M26.0859 23.4659C26.0743 24.0731 25.8827 24.6632 25.5354 25.1613C25.1881 25.6595 24.7007 26.0433 24.135 26.2642C23.5693 26.485 22.9508 26.5329 22.3578 26.4019C21.7649 26.2708 21.2242 25.9666 20.8043 25.5279C20.3844 25.0891 20.1042 24.5356 19.9993 23.9375C19.8943 23.3393 19.9693 22.7235 20.2148 22.168C20.4602 21.6125 20.8651 21.1425 21.378 20.8173C21.8909 20.4922 22.4888 20.3267 23.0959 20.3418C23.9026 20.3716 24.666 20.7145 25.2242 21.2978C25.7824 21.881 26.0914 22.6587 26.0859 23.4659Z" fill="white"/>
<path d="M28.2958 13.8633H17.8979C16.869 13.8633 15.8823 14.272 15.1548 14.9995C14.4273 15.727 14.0186 16.7138 14.0186 17.7426V28.3744C14.0186 28.8838 14.1189 29.3883 14.3139 29.8589C14.5088 30.3296 14.7946 30.7572 15.1548 31.1175C15.515 31.4777 15.9427 31.7634 16.4133 31.9584C16.884 32.1534 17.3884 32.2537 17.8979 32.2537H28.2958C28.8052 32.2537 29.3097 32.1534 29.7804 31.9584C30.251 31.7634 30.6787 31.4777 31.0389 31.1175C31.3991 30.7572 31.6849 30.3296 31.8798 29.8589C32.0748 29.3883 32.1751 28.8838 32.1751 28.3744V17.7618C32.1772 17.2509 32.0783 16.7446 31.8843 16.2719C31.6903 15.7993 31.405 15.3696 31.0446 15.0074C30.6842 14.6452 30.2559 14.3578 29.7842 14.1614C29.3125 13.9651 28.8067 13.8638 28.2958 13.8633ZM23.0959 28.6657C22.0666 28.6889 21.0537 28.4049 20.1865 27.85C19.3193 27.295 18.6371 26.4943 18.227 25.5499C17.8168 24.6055 17.6974 23.5604 17.8839 22.5478C18.0704 21.5353 18.5544 20.6013 19.2741 19.865C19.9937 19.1287 20.9165 18.6235 21.9245 18.414C22.9325 18.2044 23.9801 18.2999 24.9336 18.6884C25.8871 19.0768 26.7032 19.7406 27.2778 20.5949C27.8524 21.4492 28.1595 22.4554 28.1597 23.4849C28.1681 24.1578 28.0436 24.8257 27.7936 25.4504C27.5435 26.0751 27.1726 26.6444 26.7023 27.1256C26.2319 27.6068 25.6713 27.9905 25.0525 28.2548C24.4336 28.5191 23.7688 28.6587 23.0959 28.6657ZM28.7232 18.3061C28.5967 18.3061 28.4715 18.2809 28.3549 18.232C28.2383 18.183 28.1327 18.1112 28.0441 18.0209C27.9556 17.9306 27.886 17.8235 27.8393 17.706C27.7927 17.5884 27.77 17.4627 27.7726 17.3363C27.7726 17.0791 27.8747 16.8324 28.0566 16.6505C28.2385 16.4686 28.4852 16.3664 28.7424 16.3664C28.9996 16.3664 29.2463 16.4686 29.4282 16.6505C29.61 16.8324 29.7122 17.0791 29.7122 17.3363C29.716 17.4732 29.6902 17.6093 29.6365 17.7353C29.5828 17.8614 29.5025 17.9743 29.4012 18.0664C29.2998 18.1585 29.1797 18.2276 29.0491 18.269C28.9185 18.3103 28.7806 18.323 28.6446 18.3061H28.7232Z" fill="white"/>
<path d="M23.0957 3.83325C18.0124 3.80783 13.1272 5.80279 9.5148 9.37927C5.90238 12.9557 3.85866 17.8208 3.83325 22.9041C3.80783 27.9874 5.80279 32.8726 9.37927 36.485C12.9557 40.0975 17.8208 42.1412 22.9041 42.1666C25.4211 42.1792 27.9159 41.6959 30.2461 40.7443C32.5764 39.7927 34.6963 38.3915 36.485 36.6206C38.2737 34.8497 39.6961 32.7438 40.6709 30.4232C41.6458 28.1026 42.154 25.6128 42.1666 23.0957C42.1792 20.5787 41.6959 18.0839 40.7443 15.7537C39.7927 13.4235 38.3915 11.3035 36.6206 9.5148C34.8497 7.72611 32.7438 6.30374 30.4232 5.3289C28.1026 4.35405 25.6128 3.84583 23.0957 3.83325ZM34.7357 28.1787C34.741 29.0386 34.5756 29.891 34.2491 30.6865C33.9225 31.482 33.4413 32.2047 32.8334 32.8129C32.2254 33.421 31.5028 33.9024 30.7074 34.2292C29.9121 34.5559 29.0597 34.7216 28.1998 34.7165H17.9955C17.1356 34.7218 16.2832 34.5564 15.4877 34.2299C14.6923 33.9034 13.9695 33.4222 13.3614 32.8142C12.7533 32.2063 12.2718 31.4837 11.9451 30.6883C11.6183 29.8929 11.4527 29.0405 11.4577 28.1807V17.9744C11.4524 17.1145 11.6178 16.2621 11.9443 15.4667C12.2709 14.6712 12.7521 13.9484 13.36 13.3403C13.968 12.7322 14.6906 12.2508 15.486 11.924C16.2814 11.5972 17.1337 11.4316 17.9936 11.4367H28.1998C29.0596 11.4316 29.9117 11.5972 30.707 11.9238C31.5023 12.2505 32.2248 12.7317 32.8327 13.3396C33.4406 13.9475 33.9219 14.6701 34.2485 15.4653C34.5752 16.2606 34.7408 17.1128 34.7357 17.9725V28.1787Z" fill="white"/>
</svg>
