<svg width="41" height="41" viewBox="0 0 41 41" fill="none" xmlns="http://www.w3.org/2000/svg">
<path d="M40.32 20.16C40.32 31.2941 31.2941 40.32 20.16 40.32C9.02594 40.32 0 31.2941 0 20.16C0 9.02594 9.02594 0 20.16 0C31.2941 0 40.32 9.02594 40.32 20.16Z" fill="#787878"/>
<path d="M20 9C17.0097 9 16.637 9.01444 15.4667 9.06395C14.2917 9.1217 13.4968 9.30391 12.7955 9.5762C12.0615 9.85337 11.3967 10.2872 10.8475 10.8475C10.2864 11.396 9.85237 12.061 9.5762 12.7955C9.30391 13.4968 9.1217 14.2917 9.06395 15.4667C9.011 16.6377 9 17.0097 9 20C9 22.9903 9.01444 23.363 9.06395 24.5333C9.1217 25.7049 9.30391 26.5032 9.5762 27.2045C9.85337 27.9385 10.2872 28.6033 10.8475 29.1525C11.396 29.7136 12.061 30.1476 12.7955 30.4238C13.4968 30.6926 14.2951 30.8783 15.4667 30.9361C16.6377 30.989 17.0097 31 20 31C22.9903 31 23.363 30.9856 24.5333 30.9361C25.7049 30.8783 26.5032 30.692 27.2045 30.4238C27.9385 30.1466 28.6033 29.7128 29.1525 29.1525C29.7154 28.6054 30.1497 27.9401 30.4238 27.2045C30.6926 26.5032 30.8783 25.7049 30.9361 24.5333C30.989 23.3623 31 22.9903 31 20C31 17.0097 30.9856 16.637 30.9361 15.4667C30.8783 14.2951 30.692 13.4927 30.4238 12.7955C30.1466 12.0615 29.7128 11.3967 29.1525 10.8475C28.6054 10.2846 27.9401 9.85034 27.2045 9.5762C26.5032 9.30391 25.7049 9.1217 24.5333 9.06395C23.3623 9.011 22.9903 9 20 9ZM20 10.9802C22.9367 10.9802 23.2873 10.9947 24.448 11.0442C25.5186 11.0944 26.1016 11.2732 26.4888 11.4244C26.9672 11.6013 27.4003 11.8825 27.7567 12.2475C28.1218 12.6017 28.402 13.034 28.5763 13.5119C28.7275 13.899 28.9063 14.4821 28.9565 15.5527C29.006 16.7133 29.0204 17.0647 29.0204 20.0007C29.0204 22.9367 29.006 23.288 28.9524 24.4487C28.8946 25.5193 28.7158 26.1023 28.5653 26.4894C28.3569 27.0058 28.1245 27.3668 27.7408 27.7573C27.3834 28.1202 26.9506 28.4 26.4729 28.5769C26.0906 28.7282 25.4993 28.907 24.4246 28.9572C23.2578 29.0067 22.914 29.0211 19.9697 29.0211C17.0255 29.0211 16.6824 29.0067 15.5142 28.9531C14.4436 28.8953 13.853 28.7165 13.4659 28.5659C12.9433 28.3576 12.5851 28.1252 12.2014 27.7415C11.8143 27.3544 11.5681 26.9859 11.3784 26.4736C11.2243 26.0913 11.0483 25.5 10.9912 24.4253C10.9521 23.2722 10.9335 22.9147 10.9335 19.9842C10.9335 17.0551 10.9521 16.6968 10.9912 15.5293C11.0483 14.4546 11.2243 13.8647 11.3784 13.481C11.5681 12.9577 11.815 12.6002 12.2014 12.2131C12.5844 11.8301 12.9433 11.5826 13.4659 11.3887C13.853 11.2381 14.4292 11.0593 15.5039 11.0057C16.6707 10.9637 17.0145 10.9486 19.9546 10.9486L20 10.9802ZM20 14.3542C19.2583 14.354 18.5239 14.4998 17.8386 14.7835C17.1533 15.0672 16.5307 15.4832 16.0063 16.0076C15.4818 16.5321 15.0659 17.1547 14.7822 17.84C14.4985 18.5253 14.3526 19.2597 14.3529 20.0014C14.3526 20.743 14.4985 21.4775 14.7822 22.1628C15.0659 22.848 15.4818 23.4707 16.0063 23.9951C16.5307 24.5196 17.1533 24.9355 17.8386 25.2192C18.5239 25.5029 19.2583 25.6488 20 25.6485C20.7417 25.6488 21.4761 25.5029 22.1614 25.2192C22.8467 24.9355 23.4693 24.5196 23.9937 23.9951C24.5182 23.4707 24.9341 22.848 25.2178 22.1628C25.5015 21.4775 25.6474 20.743 25.6471 20.0014C25.6474 19.2597 25.5015 18.5253 25.2178 17.84C24.9341 17.1547 24.5182 16.5321 23.9937 16.0076C23.4693 15.4832 22.8467 15.0672 22.1614 14.7835C21.4761 14.4998 20.7417 14.354 20 14.3542ZM20 23.6683C17.973 23.6683 16.3331 22.0284 16.3331 20.0014C16.3331 17.9744 17.973 16.3345 20 16.3345C22.027 16.3345 23.6669 17.9744 23.6669 20.0014C23.6669 22.0284 22.027 23.6683 20 23.6683ZM27.1949 14.1287C27.1945 14.4791 27.0551 14.8151 26.8071 15.0628C26.5592 15.3104 26.2231 15.4496 25.8727 15.4496C25.6994 15.4496 25.5278 15.4154 25.3677 15.3491C25.2076 15.2828 25.0622 15.1856 24.9397 15.0631C24.8171 14.9406 24.7199 14.7951 24.6536 14.635C24.5873 14.4749 24.5532 14.3034 24.5532 14.1301C24.5532 13.9568 24.5873 13.7852 24.6536 13.6251C24.7199 13.465 24.8171 13.3196 24.9397 13.1971C25.0622 13.0745 25.2076 12.9774 25.3677 12.911C25.5278 12.8447 25.6994 12.8106 25.8727 12.8106C26.5995 12.8106 27.1949 13.4019 27.1949 14.1287Z" fill="#BCBCBC"/>
</svg>
