<svg width="48" height="48" viewBox="0 0 48 48" fill="none" xmlns="http://www.w3.org/2000/svg">
<path d="M27.22 24.4856C27.2079 25.1192 27.008 25.7349 26.6456 26.2547C26.2832 26.7745 25.7746 27.1751 25.1843 27.4055C24.594 27.636 23.9486 27.686 23.3298 27.5492C22.7111 27.4124 22.1469 27.095 21.7087 26.6372C21.2706 26.1794 20.9782 25.6018 20.8687 24.9776C20.7592 24.3535 20.8375 23.7109 21.0936 23.1312C21.3497 22.5516 21.7721 22.0611 22.3074 21.7218C22.8426 21.3826 23.4665 21.2099 24.1 21.2256C24.9418 21.2568 25.7383 21.6146 26.3208 22.2232C26.9032 22.8317 27.2258 23.6432 27.22 24.4856Z" fill="#787878"/>
<path d="M29.5259 14.4658H18.6759C17.6023 14.4658 16.5727 14.8923 15.8136 15.6515C15.0544 16.4106 14.6279 17.4402 14.6279 18.5138V29.6078C14.6279 30.1394 14.7326 30.6658 14.9361 31.1569C15.1395 31.648 15.4377 32.0943 15.8136 32.4702C16.1895 32.8461 16.6357 33.1443 17.1268 33.3477C17.618 33.5511 18.1443 33.6558 18.6759 33.6558H29.5259C30.0575 33.6558 30.5839 33.5511 31.075 33.3477C31.5662 33.1443 32.0124 32.8461 32.3883 32.4702C32.7642 32.0943 33.0624 31.648 33.2658 31.1569C33.4692 30.6658 33.5739 30.1394 33.5739 29.6078V18.5338C33.576 18.0007 33.4729 17.4724 33.2705 16.9792C33.068 16.486 32.7703 16.0376 32.3942 15.6597C32.0182 15.2818 31.5712 14.9818 31.079 14.7769C30.5868 14.5721 30.0591 14.4663 29.5259 14.4658ZM24.0999 29.9118C23.0259 29.9361 21.9689 29.6397 21.064 29.0606C20.1591 28.4816 19.4472 27.646 19.0193 26.6605C18.5914 25.6751 18.4668 24.5845 18.6614 23.5279C18.856 22.4714 19.361 21.4967 20.1119 20.7285C20.8629 19.9602 21.8257 19.433 22.8776 19.2144C23.9294 18.9957 25.0226 19.0954 26.0175 19.5007C27.0125 19.9061 27.8641 20.5987 28.4637 21.4901C29.0633 22.3816 29.3837 23.4315 29.3839 24.5058C29.3926 25.2079 29.2628 25.9049 29.0019 26.5567C28.7409 27.2086 28.3539 27.8026 27.8631 28.3047C27.3723 28.8069 26.7873 29.2073 26.1416 29.483C25.4958 29.7588 24.802 29.9045 24.0999 29.9118ZM29.9719 19.1018C29.84 19.1018 29.7093 19.0755 29.5876 19.0244C29.466 18.9733 29.3557 18.8985 29.2633 18.8042C29.1709 18.71 29.0983 18.5983 29.0496 18.4756C29.001 18.3529 28.9773 18.2218 28.9799 18.0898C28.9799 17.8214 29.0865 17.564 29.2763 17.3742C29.4661 17.1844 29.7235 17.0778 29.9919 17.0778C30.2603 17.0778 30.5177 17.1844 30.7075 17.3742C30.8973 17.564 31.0039 17.8214 31.0039 18.0898C31.0079 18.2327 30.981 18.3747 30.9249 18.5062C30.8689 18.6377 30.7851 18.7556 30.6793 18.8517C30.5735 18.9478 30.4482 19.0199 30.312 19.0631C30.1757 19.1062 30.0318 19.1195 29.8899 19.1018H29.9719Z" fill="#787878"/>
<path d="M24.2606 4.00025C18.9139 3.97352 13.7755 6.07185 9.97594 9.83363C6.17635 13.5954 4.02674 18.7125 4.00001 24.0592C3.97327 29.4059 6.0716 34.5442 9.83339 38.3438C13.5952 42.1434 18.7123 44.293 24.059 44.3197C26.7064 44.333 29.3305 43.8246 31.7814 42.8238C34.2324 41.8229 36.4622 40.349 38.3436 38.4864C40.2249 36.6237 41.721 34.4088 42.7464 31.9679C43.7717 29.5271 44.3063 26.9082 44.3195 24.2608C44.3327 21.6134 43.8244 18.9893 42.8235 16.5383C41.8226 14.0874 40.3488 11.8575 38.4861 9.97618C36.6235 8.09482 34.4085 6.59875 31.9677 5.5734C29.5269 4.54804 26.908 4.01349 24.2606 4.00025ZM36.5036 29.6072C36.5092 30.5116 36.3352 31.4081 35.9918 32.2448C35.6483 33.0815 35.1422 33.8418 34.5027 34.4814C33.8633 35.121 33.1032 35.6274 32.2666 35.9711C31.43 36.3148 30.5335 36.489 29.6291 36.4837H18.896C17.9916 36.4893 17.0951 36.3153 16.2584 35.9718C15.4217 35.6284 14.6615 35.1223 14.0218 34.4828C13.3822 33.8434 12.8758 33.0833 12.5321 32.2467C12.1884 31.4101 12.0142 30.5136 12.0196 29.6092V18.8741C12.0139 17.9697 12.1879 17.0731 12.5314 16.2364C12.8748 15.3997 13.3809 14.6395 14.0204 13.9999C14.6598 13.3603 15.4199 12.8539 16.2565 12.5102C17.0931 12.1665 17.9896 11.9923 18.894 11.9976H29.6291C30.5334 11.9923 31.4297 12.1664 32.2662 12.51C33.1026 12.8536 33.8626 13.3598 34.502 13.9992C35.1414 14.6386 35.6476 15.3986 35.9912 16.235C36.3348 17.0715 36.5089 17.9678 36.5036 18.8721V29.6072Z" fill="#787878"/>
</svg>
