<svg width="41" height="41" viewBox="0 0 41 41" fill="none" xmlns="http://www.w3.org/2000/svg">
<path d="M23.5263 19.8093L18.8097 17.6085C18.3981 17.4174 18.06 17.6316 18.06 18.0873V22.2327C18.06 22.6884 18.3981 22.9026 18.8097 22.7115L23.5242 20.5107C23.9379 20.3175 23.9379 20.0025 23.5263 19.8093ZM20.16 0C9.0258 0 0 9.0258 0 20.16C0 31.2942 9.0258 40.32 20.16 40.32C31.2942 40.32 40.32 31.2942 40.32 20.16C40.32 9.0258 31.2942 0 20.16 0ZM20.16 28.35C9.8406 28.35 9.66 27.4197 9.66 20.16C9.66 12.9003 9.8406 11.97 20.16 11.97C30.4794 11.97 30.66 12.9003 30.66 20.16C30.66 27.4197 30.4794 28.35 20.16 28.35Z" fill="white"/>
</svg>
