<svg width="42" height="42" viewBox="0 0 42 42" fill="none" xmlns="http://www.w3.org/2000/svg">
<g clip-path="url(#clip0_372_361)">
<path d="M24.3664 20.6491L19.6498 18.4483C19.2382 18.2572 18.9001 18.4714 18.9001 18.9271V23.0725C18.9001 23.5282 19.2382 23.7424 19.6498 23.5513L24.3643 21.3505C24.778 21.1573 24.778 20.8423 24.3664 20.6491ZM21.0001 0.839844C9.86589 0.839844 0.840088 9.86564 0.840088 20.9998C0.840088 32.134 9.86589 41.1598 21.0001 41.1598C32.1343 41.1598 41.1601 32.134 41.1601 20.9998C41.1601 9.86564 32.1343 0.839844 21.0001 0.839844ZM21.0001 29.1898C10.6807 29.1898 10.5001 28.2595 10.5001 20.9998C10.5001 13.7401 10.6807 12.8098 21.0001 12.8098C31.3195 12.8098 31.5001 13.7401 31.5001 20.9998C31.5001 28.2595 31.3195 29.1898 21.0001 29.1898Z" fill="#787878"/>
</g>
<defs>
<clipPath id="clip0_372_361">
<rect width="42" height="42" fill="white"/>
</clipPath>
</defs>
</svg>
